<?xml version="1.0" encoding="utf-8"?>
<!-- Generator: Adobe Illustrator 24.3.0, SVG Export Plug-In . SVG Version: 6.00 Build 0)  -->
<svg version="1.1" id="Ebene_1" xmlns="http://www.w3.org/2000/svg" xmlns:xlink="http://www.w3.org/1999/xlink" x="0px" y="0px"
	 viewBox="0 0 429.50574 164.12207" style="enable-background:new 0 0 429.50574 164.12207;" xml:space="preserve">
<style type="text/css">
	.st0{fill:#4589B1;}
</style>
<g>
	<path class="st0" d="M38.90712,77.13042c3.53955,13.87376,7.6074,27.30727,11.12919,40.53394
		c-16.51436,3.27281-33.31874,6.4357-49.62395,9.91706C0.26305,127.50707,0.13125,127.41251,0,127.31733V84.93752
		c12.70833-2.62057,25.61008-5.04459,38.32063-7.65913c-0.37138-3.12486-1.32267-5.99422-1.89134-9.18562
		c20.07124-4.03277,40.91428-8.17018,61.0901-12.10193c-3.45819-16.32247-9.87608-29.68046-18.08066-41.26544
		c-16.93213,3.23539-34.18389,6.74588-51.01138,10.09119c2.29239,14.13815,5.07144,29.89201,8.00194,43.27618
		C24.18505,70.35658,12.25904,72.94343,0,75.19514V30.27384c9.39502-1.80452,18.71324-3.68744,28.11422-5.48637
		c-0.38926-3.10765-0.84143-6.15109-1.16051-9.33063C17.82812,17.04919,8.9842,18.92498,0,20.65399V0.69772h24.15685
		c1.0963,4.7553,1.91451,9.78637,2.94187,14.61116c15.27846-2.89843,30.37092-5.9799,45.63751-8.89265
		c-1.05588-1.86277-3.64358-3.87055-5.01915-5.71851h11.47205c1.17772,1.15154,2.04225,2.62279,3.16824,3.82127
		c3.38274-0.69937,7.14281-1.4219,11.08286-2.18487c2.27457-0.44087,4.65969-1.14325,7.03289-1.63641h13.82066
		c-0.0062-0.00608-0.01186-0.0126-0.01807-0.01868h11.87249c3.9999,5.16158,7.66135,10.61563,10.89509,16.36155v19.74183
		c-1.6946-4.64869-3.68333-9.15059-5.98415-13.45679c0,0.00184,0,0.00363,0,0.00547
		c-1.60445-2.92313-3.2883-5.76693-5.09171-8.49073c-0.062-0.09217-3.80695-5.31623-5.31949-7.15793
		c-0.27226-0.32461-0.5393-0.65445-0.81728-0.97329c-10.3924,2.09454-20.79076,4.19265-31.35133,6.12196
		c3.42316,5.99956,6.89918,12.2784,9.77149,19.24707c2.84915,6.90508,5.32096,14.304,6.9978,22.30833
		c6.04049-1.15732,20.62811-4.05894,31.79466-6.29591v9.60971c-10.71561,2.13129-24.5622,4.8753-30.04243,6.01683
		c1.90923,12.98071,2.10112,29.07737,0,41.99093c6.51324-1.13465,20.94284-4.24347,30.04243-6.12688v9.62502
		c-9.57825,1.97159-24.48417,5.12446-31.93967,6.56393c-4.27044,17.30934-11.22246,31.93776-19.97256,44.76161
		c0.05518-0.02704,0.10784-0.05659,0.1629-0.08369l-0.12634,0.20062c3.38661-1.27106,6.83571-2.8105,10.19695-4.50449
		c16.33851-8.23425,31.32381-22.1987,41.67873-40.23218v15.0213c-1.12439,1.56139-2.27158,3.1031-3.45894,4.60649
		c-9.06862,11.48225-21.48084,21.64835-32.63049,27.85829h-17.5174l-0.00006,0.00006H72.07489
		c0.08141-0.08676,0.16277-0.16522,0.22041-0.24068c10.29974-12.53683,19.38078-27.39998,24.20858-45.49311
		c-14.53509,2.67507-29.605,6.06967-44.4711,8.89565c-0.65003-3.04639-1.46823-5.62284-1.99648-8.89565
		c15.99804-3.39398,32.64611-6.81771,48.64943-10.20641c2.84921-12.10426,2.69289-29.16413,0.73151-42.13594L38.90712,77.13042z"/>
	<path class="st0" d="M11.20526,140.12065c8.59384,8.59384,19.03853,15.70512,30.6205,21.43256
		c1.12537,0.55675,2.33283,1.27037,3.49328,1.84494h14.97062c-2.80276-12.29559-5.35599-24.59181-8.25687-36.83813
		c-14.76207,3.02623-29.99419,6.16534-44.76167,9.18562C8.30978,137.37608,9.81844,138.73143,11.20526,140.12065z"/>
</g>
<g>
	<path class="st0" d="M163.89099,16.55957C163.89099,6.83984,169.8905,0,179.01013,0s15.11963,6.83984,15.11963,16.55957v10.31934
		c0,9.71973-6,16.55957-15.11963,16.55957s-15.11914-6.83984-15.11914-16.55957V16.55957z M170.37048,25.79883
		c0,7.55957,3.2998,11.81982,8.63965,11.81982s8.63965-4.26025,8.63965-11.81982v-8.15967
		c0-7.55957-3.2998-11.81934-8.63965-11.81934s-8.63965,4.25977-8.63965,11.81934V25.79883z"/>
	<path class="st0" d="M208.41003,26.39893v16.31934h-6.47998V0.71973h14.99951c6.47998,0,13.37988,4.14014,13.37988,12.83984
		c0,8.75977-6.8999,12.83936-13.37988,12.83936H208.41003z M216.02966,20.5791c4.5,0,7.7998-2.3999,7.7998-7.01953
		c0-4.67969-3.2998-7.02002-7.7998-7.02002h-7.61963V20.5791H216.02966z"/>
	<path class="st0" d="M237.50964,0.71973h25.7998v5.81982h-19.31934v11.69971h16.85938v5.81982h-16.85938v12.83936h19.31934v5.81982
		h-25.7998V0.71973z"/>
	<path class="st0" d="M277.28992,12.7793v29.93896h-6.48047V0.71973h6l18.11914,29.93896V0.71973h6.48047v41.99854h-6
		L277.28992,12.7793z"/>
	<path class="st0" d="M171.57068,74.68115v28.37891h-6.47998V61.06152h5.58008l13.01904,23.87939l13.01953-23.87939h5.58008
		v41.99854h-6.47998V74.68115l-9.41943,17.33936h-5.3999L171.57068,74.68115z"/>
	<path class="st0" d="M211.29041,61.06152h25.7993v5.81982h-19.31932v11.69971h16.85938v5.81982h-16.85938v12.83936h19.31932
		v5.81982h-25.7993V61.06152z"/>
	<path class="st0" d="M244.5907,61.06152h13.19922c9.12012,0,15.11914,6.12012,15.11914,15.83984V87.2207
		c0,9.71973-5.99902,15.83936-15.11914,15.83936H244.5907V61.06152z M251.07019,97.24023h6.36035
		c5.33887,0,8.99902-3.54004,8.99902-11.09961v-8.15967c0-7.55957-3.66016-11.09961-8.99902-11.09961h-6.36035V97.24023z"/>
	<path class="st0" d="M287.48914,103.06006h-6.47949V61.06152h6.47949V103.06006z"/>
	<path class="st0" d="M295.28894,76.90137c0-9.71973,6-16.55957,15.11914-16.55957c8.04004,0,13.7998,5.33984,14.94043,13.25928
		l-6.41992,1.08008c-1.02051-5.63965-4.08008-8.51953-8.52051-8.51953c-5.33984,0-8.63965,4.25977-8.63965,11.81934v8.15967
		c0,7.55957,3.2998,11.81982,8.63965,11.81982c4.44043,0,7.5-2.87988,8.52051-8.52002l6.41992,1.08008
		c-1.14062,7.91992-6.90039,13.25977-14.94043,13.25977c-9.11914,0-15.11914-6.83984-15.11914-16.55957V76.90137z"/>
	<path class="st0" d="M352.70789,93.64062h-14.93945l-2.93945,9.41943h-7.08008l14.2793-41.99854h6.48047l14.2793,41.99854h-7.08008
		L352.70789,93.64062z M339.62878,87.8208h11.2793l-5.63965-17.99951L339.62878,87.8208z"/>
	<path class="st0" d="M367.88855,61.06152h6.47949v36.17871h19.31934v5.81982h-25.79883V61.06152z"/>
	<path class="st0" d="M171.57068,163.40234h-6.47998V121.4043h6.47998V163.40234z"/>
	<path class="st0" d="M187.04968,133.46387v29.93848h-6.47998V121.4043h6l18.11914,29.93848V121.4043h6.47949v41.99805h-5.99951
		L187.04968,133.46387z"/>
	<path class="st0" d="M234.32898,164.12207c-8.21973,0-14.03955-4.67969-15.95947-12.29883l6.65967-1.2002
		c1.26074,4.91992,4.5,7.67969,9.2998,7.67969c4.55957,0,7.5-2.45996,7.5-6.47949c0-3.59961-2.21973-5.7002-7.37988-6.66016
		l-3.35939-0.59961c-7.80028-1.37988-11.58006-5.7002-11.58006-11.93945c0-5.87988,4.19971-11.93945,13.25977-11.93945
		c7.61914,0,13.0791,4.25977,14.5791,11.33887l-6.59961,1.2002c-0.95996-3.89941-3.54004-6.71973-7.97949-6.71973
		c-4.55957,0-6.78027,2.94043-6.78027,6.12012c0,3,1.62012,5.2793,6.2998,6.17969l3.54004,0.66016
		c9.23926,1.73926,12.47949,6.35938,12.47949,12.35938C248.30847,158.7832,243.68835,164.12207,234.32898,164.12207z"/>
	<path class="st0" d="M251.61023,121.4043h29.51855v5.81934h-11.51953v36.17871h-6.47949v-36.17871h-11.51953V121.4043z"/>
	<path class="st0" d="M293.30945,163.40234h-6.48047V121.4043h6.48047V163.40234z"/>
	<path class="st0" d="M299.00867,121.4043h29.51855v5.81934h-11.51953v36.17871h-6.47949v-36.17871h-11.51953V121.4043z"/>
	<path class="st0" d="M340.22742,146.84277c0,7.56055,2.82031,11.45996,8.28027,11.45996s8.2793-3.89941,8.2793-11.45996V121.4043
		h6.47949v26.51855c0,9.71973-5.39941,16.19922-14.75879,16.19922s-14.75977-6.47949-14.75977-16.19922V121.4043h6.47949V146.84277z
		"/>
	<path class="st0" d="M368.48816,121.4043h29.51855v5.81934h-11.51953v36.17871h-6.47949v-36.17871h-11.51953V121.4043z"/>
	<path class="st0" d="M403.70691,121.4043h25.79883v5.81934H410.1864v11.7002h16.85938v5.81934H410.1864v12.83984h19.31934v5.81934
		h-25.79883V121.4043z"/>
</g>
</svg>
