<?xml version="1.0" encoding="utf-8"?>
<!-- Generator: Adobe Illustrator 24.3.0, SVG Export Plug-In . SVG Version: 6.00 Build 0)  -->
<svg version="1.1" id="Layer_1" xmlns="http://www.w3.org/2000/svg" xmlns:xlink="http://www.w3.org/1999/xlink" x="0px" y="0px"
	 viewBox="0 0 250.1 305.5" style="enable-background:new 0 0 250.1 305.5;" xml:space="preserve">
<style type="text/css">
	.st0{fill:#676766;}
</style>
<path class="st0" d="M243.3,255.2c2.1-2.8,5.8-6.9,6.3-9.3c1-4.6,0-10.1,0-14.8c0.2-4.8,0.1-9.7-0.3-14.5
	c-19.5,37-48.1,64.9-86,83.5c17.5-25.5,30.2-54,37.5-84.1c16.4-3.2,32.5-6.6,48.7-9.9v-18.1c-14.9,3-30.7,6.5-45.2,9
	c3.9-24.2,3.6-54.5,0-78.8c15-3.1,30.2-6,45.2-9V91.2c-16.1,3.3-32.2,6.5-48.5,9.6c-3.1-14.3-7.5-28.4-13.1-41.9
	c-5.3-13.1-11.9-24.9-18.3-36.1c19.8-3.6,39.4-7.6,58.9-11.5c8.1,9.3,14.9,20,21.1,31.2V12.9c-1.6-2.5-3.4-4.8-5.2-7.1
	c-1.1-1.5-2.6-4.2-4.2-5.8h-48c-4.4,0.9-8.9,2.2-13.2,3.1c-7.4,1.4-14.5,2.8-20.8,4.1c-2.1-2.2-3.7-5-6-7.2h-21.6
	c2.6,3.5,7.4,7.2,9.4,10.7c-28.7,5.5-57,11.2-85.7,16.7C52.5,18.4,51,8.9,48.9,0H0.3v38.1c18-3.4,35.7-7.2,53.9-10.4
	c0.6,6,1.4,11.7,2.2,17.5c-18.8,3.6-37.3,7.4-56.1,11v84.3c24.2-4.4,47.6-9.5,71.7-14c-5.5-25.1-10.7-54.7-15-81.3
	c31.6-6.3,64-12.9,95.8-18.9c16.6,23.2,28.1,49.6,34,77.5c-37.9,7.4-77,15.2-114.7,22.7c1.1,6,2.8,11.4,3.6,17.2
	c-25,5.1-50.3,9.9-75.3,15.1v55.6c0,9.1-1.8,20.9,4.1,23.8c30.6-6.6,62.1-12.5,93.1-18.6c-6.6-24.8-14.2-50.1-20.9-76.1
	c37.9-7.2,76.2-15.4,113.6-22.2c3.7,24.4,4,56.4-1.4,79.1c-30,6.4-61.3,12.8-91.3,19.2c1,6.1,2.5,11,3.7,16.7
	c-27.7,5.7-56.3,11.6-84,17.3c1.9,3.1,4.8,5.6,7.4,8.2c16,16.1,35.7,29.4,57.4,40.2c2.1,1,4.4,2.4,6.6,3.5h28.1
	c-5.3-23.1-10.1-46.2-15.5-69.2c27.9-5.3,56.2-11.7,83.5-16.7c-9.1,34-26.1,61.9-45.5,85.4c-0.1,0.2-0.3,0.3-0.4,0.5H189
	C209.7,292.6,228.4,274.7,243.3,255.2z"/>
</svg>
